<mxfile host="app.diagrams.net" agent="Mozilla/5.0 (Macintosh; Intel Mac OS X 10_15_7) AppleWebKit/537.36 (KHTML, like Gecko) Chrome/135.0.0.0 Safari/537.36" version="26.1.1">
  <diagram name="第 1 页" id="OdwwV2ywufr4M3ZTZQC8">
    <mxGraphModel dx="564" dy="711" grid="1" gridSize="10" guides="1" tooltips="1" connect="1" arrows="1" fold="1" page="1" pageScale="1" pageWidth="827" pageHeight="1169" math="0" shadow="0">
      <root>
        <mxCell id="0" />
        <mxCell id="1" parent="0" />
        <mxCell id="LMv8wf59iYp0szGljPKy-3" style="edgeStyle=orthogonalEdgeStyle;rounded=0;orthogonalLoop=1;jettySize=auto;html=1;exitX=0.5;exitY=1;exitDx=0;exitDy=0;entryX=0.5;entryY=0;entryDx=0;entryDy=0;" edge="1" parent="1" source="LMv8wf59iYp0szGljPKy-1" target="LMv8wf59iYp0szGljPKy-2">
          <mxGeometry relative="1" as="geometry" />
        </mxCell>
        <mxCell id="LMv8wf59iYp0szGljPKy-1" value="用户AI搜索商品" style="rounded=1;whiteSpace=wrap;html=1;" vertex="1" parent="1">
          <mxGeometry x="250" y="110" width="120" height="60" as="geometry" />
        </mxCell>
        <mxCell id="LMv8wf59iYp0szGljPKy-5" style="edgeStyle=orthogonalEdgeStyle;rounded=0;orthogonalLoop=1;jettySize=auto;html=1;exitX=0.5;exitY=1;exitDx=0;exitDy=0;" edge="1" parent="1" source="LMv8wf59iYp0szGljPKy-2" target="LMv8wf59iYp0szGljPKy-4">
          <mxGeometry relative="1" as="geometry" />
        </mxCell>
        <mxCell id="LMv8wf59iYp0szGljPKy-2" value="AI-MCP-PROXY(MCPClient)" style="rounded=1;whiteSpace=wrap;html=1;" vertex="1" parent="1">
          <mxGeometry x="250" y="240" width="120" height="60" as="geometry" />
        </mxCell>
        <mxCell id="LMv8wf59iYp0szGljPKy-7" style="edgeStyle=orthogonalEdgeStyle;rounded=0;orthogonalLoop=1;jettySize=auto;html=1;exitX=0.5;exitY=1;exitDx=0;exitDy=0;entryX=0.5;entryY=0;entryDx=0;entryDy=0;" edge="1" parent="1" source="LMv8wf59iYp0szGljPKy-4" target="LMv8wf59iYp0szGljPKy-6">
          <mxGeometry relative="1" as="geometry" />
        </mxCell>
        <mxCell id="LMv8wf59iYp0szGljPKy-4" value="AI分析意图，选择MCPServer，请求" style="rounded=1;whiteSpace=wrap;html=1;" vertex="1" parent="1">
          <mxGeometry x="250" y="360" width="120" height="60" as="geometry" />
        </mxCell>
        <mxCell id="LMv8wf59iYp0szGljPKy-6" value="返回" style="rounded=1;whiteSpace=wrap;html=1;" vertex="1" parent="1">
          <mxGeometry x="250" y="480" width="120" height="60" as="geometry" />
        </mxCell>
      </root>
    </mxGraphModel>
  </diagram>
</mxfile>
